<svg width="30" height="30" viewBox="0 0 30 30" fill="none" xmlns="http://www.w3.org/2000/svg">
<path d="M27.304 11.7149C27.2276 11.4896 27.0868 11.2917 26.8991 11.1455C26.7115 10.9994 26.4851 10.9114 26.248 10.8924L19.3118 10.3413L16.3102 3.69704C16.2146 3.48304 16.0592 3.30128 15.8626 3.1737C15.666 3.04611 15.4366 2.97816 15.2022 2.97803C14.9679 2.9779 14.7385 3.0456 14.5417 3.17297C14.345 3.30034 14.1893 3.48193 14.0935 3.69582L11.092 10.3413L4.15574 10.8924C3.92269 10.9109 3.6999 10.9961 3.51401 11.1378C3.32813 11.2796 3.18702 11.4719 3.10757 11.6918C3.02812 11.9117 3.0137 12.1497 3.06602 12.3776C3.11835 12.6054 3.23521 12.8134 3.40262 12.9766L8.52844 17.9734L6.71561 25.8233C6.66056 26.061 6.6782 26.3096 6.76624 26.5371C6.85428 26.7646 7.00866 26.9603 7.20933 27.0989C7.41001 27.2376 7.64772 27.3127 7.89161 27.3146C8.13551 27.3164 8.37434 27.2449 8.5771 27.1094L15.2019 22.6929L21.8266 27.1094C22.0338 27.247 22.2783 27.3178 22.527 27.3123C22.7757 27.3069 23.0167 27.2254 23.2177 27.0788C23.4187 26.9323 23.5701 26.7277 23.6513 26.4926C23.7326 26.2575 23.7399 26.0031 23.6723 25.7637L21.447 17.9771L26.9658 13.0106C27.3272 12.6846 27.4598 12.176 27.304 11.7149Z" fill="#F3CD03"/>
</svg>
